<svg width="80" height="54" viewBox="0 0 80 54" fill="none" xmlns="http://www.w3.org/2000/svg">
<path fill-rule="evenodd" clip-rule="evenodd" d="M0.0908442 0.999973C0.308525 0.492397 0.848382 0.34245 1.29665 0.665056L39.6746 28.2847C39.682 28.29 39.6894 28.2955 39.6967 28.3011C39.704 28.2955 39.7114 28.29 39.7188 28.2847L78.0967 0.665056C78.545 0.34245 79.0849 0.492397 79.3026 0.999973C79.5202 1.50755 79.3333 2.18055 78.885 2.50315L40.5071 30.1228C40.2403 30.3148 39.9411 30.3394 39.6967 30.2209C39.4523 30.3394 39.153 30.3148 38.8863 30.1228L0.508358 2.50315C0.0600908 2.18055 -0.126836 1.50755 0.0908442 0.999973ZM1.29665 23.8772C0.848382 23.5546 0.308525 23.7046 0.0908442 24.2121C-0.126836 24.7197 0.0600908 25.3927 0.508358 25.7153L38.8863 53.3349C39.153 53.5269 39.4523 53.5516 39.6967 53.433C39.9411 53.5516 40.2403 53.5269 40.5071 53.3349L78.885 25.7153C79.3333 25.3927 79.5202 24.7197 79.3026 24.2121C79.0849 23.7046 78.545 23.5546 78.0967 23.8772L39.7188 51.4968C39.7114 51.5022 39.704 51.5077 39.6967 51.5132C39.6894 51.5077 39.682 51.5022 39.6746 51.4968L1.29665 23.8772Z" fill="white"/>
</svg>
